# xmcd CD database file generated by OrangeCD 5.0
#
# Track frame offsets:
#	150
#	17047
#	29545
#	51275
#	64068
#	76702
#	84150
#	99675
#	116645
#	128781
#	138389
#	148527
#	157431
#	170748
#	186104
#	195979
#	208965
#	220850
#	232272
#	243181
#	258270
#	271338
#
# Disc length: 3829 seconds
#
# Revision: 0
# Processed by: cddbd v1.4PL0 Copyright (c) Steve Scherf et al.
# Submitted via: OrangeCD 5.0
#
DISCID=430ef316
DTITLE=Commander Cody and His Lost Planet Airmen - Live In The Ozone
DYEAR=2000
DGENRE=Country
TTITLE0=Oh Mama Mama
TTITLE1=Ain't Nothin' Shakin' But The Leaves
TTITLE2=Beat Me Daddy Eight To The Bar
TTITLE3=Hot Rod Lincoln
TTITLE4=Riot In Cell Block Number 9
TTITLE5=Steel Guitar Rag
TTITLE6=Four Or Five Times
TTITLE7=What's The Matter Now?
TTITLE8=Rock The Boogie
TTITLE9=Mama Tried
TTITLE10=Sea Cruise
TTITLE11=Get It
TTITLE12=Jailhouse Rock
TTITLE13=Smoke That Cigarette
TTITLE14=I Took Three Bennies And My Semi-Truck Won't Start
TTITLE15=Take Me To Tulsa
TTITLE16=Sister Sue
TTITLE17=Truck Stop Rock
TTITLE18=Lost In The Ozone Again
TTITLE19=Goin' Back To Tennessee
TTITLE20=All I Have To Offer You Is Me
TTITLE21=Down To Seeds And Stems Again
EXTD=
EXTT0=
EXTT1=
EXTT2=
EXTT3=
EXTT4=
EXTT5=
EXTT6=
EXTT7=
EXTT8=
EXTT9=
EXTT10=
EXTT11=
EXTT12=
EXTT13=
EXTT14=
EXTT15=
EXTT16=
EXTT17=
EXTT18=
EXTT19=
EXTT20=
EXTT21=
PLAYORDER=
